<svg width="106" height="72" viewBox="0 0 246 212" fill="none" xmlns="http://www.w3.org/2000/svg">
<path d="M183.753 1.50011L183.465 1H182.887H62.9624H62.3849L62.0963 1.50011L2.13391 105.389L1.84539 105.889L2.13391 106.389L62.0963 210.278L62.3849 210.778H62.9624H182.887H183.465L183.753 210.278L243.716 106.389L244.004 105.889L243.716 105.389L183.753 1.50011ZM67.7121 10.1962H178.137L233.347 105.889L178.137 201.579H67.7121L12.4534 105.889L67.7121 10.1962Z" fill="#02d3a1" stroke="#02d3a1" stroke-width="2"/>
<path d="M80.721 80.1386C80.2582 79.5384 79.8533 78.8558 79.5062 78.0831C79.1663 77.3029 79 76.5527 79 75.8325V47.5056C79 46.9055 79.2531 46.3428 79.7665 45.8102C80.2871 45.2701 80.8367 45 81.4152 45H89.7164C90.3998 45 90.9747 45.2701 91.4374 45.8102C91.9002 46.3428 92.1316 46.9055 92.1316 47.5056V70.4612C92.1316 71.0539 92.3052 71.7665 92.6523 72.6067C92.9994 73.4469 93.3971 74.1634 93.8526 74.7523L123.587 104.88L153.147 74.7523C153.715 74.1634 154.145 73.4469 154.435 72.6067C154.724 71.7665 154.868 71.0539 154.868 70.4612V47.5056C154.868 46.9055 155.1 46.3428 155.563 45.8102C156.025 45.2701 156.597 45 157.284 45H165.585C166.279 45 166.85 45.2701 167.306 45.8102C167.769 46.3428 168 46.9055 168 47.5056V75.8325C168 76.5527 167.826 77.3029 167.479 78.0831C167.14 78.8558 166.742 79.5384 166.279 80.1386L130.153 117.438V165.494C130.153 166.207 129.892 166.8 129.372 167.28C128.851 167.76 128.305 168 127.737 168H119.436C117.824 168 117.021 167.167 117.021 165.494V117.438L80.721 80.1386Z" fill="#02d3a1"/>
</svg>
