<svg width="120" height="120" viewBox="0 0 36 30" fill="none" xmlns="http://www.w3.org/2000/svg">
<path d="M8.99436 29.7815L0 14.8907L8.99436 0H26.9831L35.9774 14.8907L26.9831 29.7815H8.99436Z" fill="#112240"/>
<path d="M11.2707 10.7136C11.1979 10.616 11.1342 10.505 11.0796 10.3794C11.0262 10.2525 11 10.1305 11 10.0134V5.40742C11 5.30983 11.0398 5.21835 11.1206 5.13174C11.2025 5.04391 11.2889 5 11.3799 5H12.6857C12.7932 5 12.8837 5.04391 12.9565 5.13174C13.0292 5.21835 13.0656 5.30983 13.0656 5.40742V9.14003C13.0656 9.2364 13.0929 9.35228 13.1475 9.4889C13.2021 9.62552 13.2647 9.74201 13.3364 9.83777L18.0136 14.7365L22.6636 9.83777C22.7529 9.74201 22.8206 9.62552 22.8661 9.4889C22.9116 9.35228 22.9344 9.2364 22.9344 9.14003V5.40742C22.9344 5.30983 22.9708 5.21835 23.0435 5.13174C23.1163 5.04391 23.2062 5 23.3143 5H24.6201C24.7293 5 24.8191 5.04391 24.8908 5.13174C24.9636 5.21835 25 5.30983 25 5.40742V10.0134C25 10.1305 24.9727 10.2525 24.9181 10.3794C24.8646 10.505 24.8021 10.616 24.7293 10.7136L19.0465 16.7785V24.5926C19.0465 24.7085 19.0055 24.8048 18.9236 24.8829C18.8417 24.961 18.7558 25 18.6666 25H17.3607C17.1071 25 16.9808 24.8646 16.9808 24.5926V16.7785L11.2707 10.7136Z" fill="white"/>
</svg>
